<?xml version="1.0" standalone="no"?>
<!DOCTYPE svg PUBLIC "-//W3C//DTD SVG 20010904//EN"
 "http://www.w3.org/TR/2001/REC-SVG-20010904/DTD/svg10.dtd">
<svg version="1.0" xmlns="http://www.w3.org/2000/svg"
 width="500.000000pt" height="500.000000pt" viewBox="0 0 500.000000 500.000000"
 preserveAspectRatio="xMidYMid meet">

<g transform="translate(0.000000,500.000000) scale(0.100000,-0.100000)"
fill="#000000" stroke="none">
<path d="M1919 4484 c-209 -37 -404 -148 -580 -330 -178 -183 -285 -368 -362
-623 l-35 -114 -74 -26 c-186 -66 -240 -122 -363 -375 -186 -383 -286 -584
-355 -716 -39 -74 -85 -178 -103 -230 -32 -95 -32 -95 -32 -295 l0 -200 34
-90 c72 -194 145 -309 273 -431 240 -227 608 -361 1263 -458 286 -42 442 -56
766 -66 910 -29 1362 78 1786 423 l82 67 64 0 c187 0 285 92 295 276 l4 84 42
24 c55 33 103 81 128 130 27 53 19 104 -26 171 -20 28 -36 60 -36 71 0 35 -48
198 -79 266 -38 85 -89 161 -180 265 -39 46 -71 85 -71 87 0 2 34 23 75 45 85
47 200 150 246 221 26 40 37 48 79 59 63 16 110 66 110 116 0 27 7 39 40 65
22 18 47 45 55 61 19 37 19 99 -1 148 -12 30 -13 44 -5 60 20 36 12 55 -39 99
-28 24 -50 48 -50 55 0 66 -49 136 -121 172 -30 16 -59 41 -78 68 -74 109
-198 190 -340 225 l-74 18 -24 92 c-44 177 -130 302 -273 397 -217 144 -473
178 -735 98 -27 -8 -121 -49 -207 -90 l-157 -76 -68 51 c-243 180 -580 260
-874 206z m2765 -1259 c54 -14 128 -38 165 -53 58 -24 69 -33 89 -72 52 -101
1 -179 -150 -229 -63 -21 -90 -26 -93 -18 -2 7 -11 40 -19 74 -55 225 -207
313 -438 254 -208 -53 -315 -167 -326 -343 l-5 -78 -76 0 c-100 0 -183 14
-295 50 -71 23 -95 35 -107 56 -16 26 -16 29 4 56 11 15 28 58 37 94 l16 67
70 24 c38 14 138 42 222 63 399 102 660 118 906 55z m-1254 -50 c20 -61 16
-164 -8 -211 -24 -48 -85 -105 -141 -133 -44 -23 -43 -23 -61 34 -71 228 -246
319 -492 256 -200 -51 -295 -155 -300 -327 l-2 -65 -31 7 c-63 13 -179 56
-258 95 -80 41 -220 130 -231 148 -3 5 38 12 92 16 145 10 359 49 522 95 330
92 487 117 737 119 l161 1 12 -35z m814 -87 c21 -30 20 -54 -4 -78 -55 -55
-136 24 -83 82 23 25 68 23 87 -4z m-1500 -41 c39 -28 10 -107 -39 -107 -46 0
-75 69 -45 105 15 19 60 19 84 2z m1710 -68 c54 -43 22 -133 -47 -133 -49 0
-77 27 -77 75 0 42 35 79 75 79 12 0 34 -9 49 -21z m-1481 -30 c49 -22 61 -86
22 -124 -39 -40 -96 -32 -120 16 -21 40 -19 57 14 90 32 32 47 35 84 18z
m1218 -75 c17 -21 0 -49 -32 -49 -24 0 -36 23 -25 51 7 19 40 18 57 -2z
m-1444 -70 c8 -22 -10 -49 -32 -49 -10 0 -22 7 -28 16 -15 24 -1 49 28 49 15
0 28 -7 32 -16z"/>
</g>
</svg>
